<svg xmlns="http://www.w3.org/2000/svg" viewBox="0 0 32 32">
  <rect width="32" height="32" rx="8" fill="#000000" />
  <path d="M22.5 10.5C22.5 9.11929 21.3807 8 20 8H12C10.6193 8 9.5 9.11929 9.5 10.5V12.5C9.5 13.6046 10.3954 14.5 11.5 14.5H19.5C20.0523 14.5 20.5 14.9477 20.5 15.5V17.5C20.5 18.0523 20.0523 18.5 19.5 18.5H11.5C10.3954 18.5 9.5 19.3954 9.5 20.5V22.5C9.5 23.8807 10.6193 25 12 25H20C21.3807 25 22.5 23.8807 22.5 22.5V20.5C22.5 19.3954 21.6046 18.5 20.5 18.5H12.5C11.9477 18.5 11.5 18.0523 11.5 17.5V15.5C11.5 14.9477 11.9477 14.5 12.5 14.5H20.5C21.6046 14.5 22.5 13.6046 22.5 12.5V10.5Z" fill="#ccff00"/>
</svg>
